<svg id="Layer_1" data-name="Layer 1" xmlns="http://www.w3.org/2000/svg" viewBox="0 0 64 64"><path d="M15.5,48a11.5,11.5,0,1,1,7.8535-19.9009L21.9873,29.56A9.5,9.5,0,1,0,15.5,46Z" fill="#bdc1c6"/><path d="M30.5,12A15.4467,15.4467,0,0,0,15.9957,22.0126a14.5067,14.5067,0,0,1,2.0655.2185A13.5083,13.5083,0,0,1,39.81,17.7241l1.0552-.43.3244-1.0178A15.4309,15.4309,0,0,0,30.5,12Z" fill="#4285f4"/><path d="M57.4215,30.3074A11.9666,11.9666,0,0,0,46,22a12.1035,12.1035,0,0,0-2.2375.2117l-.7544.1423-.3324-.6919a13.4911,13.4911,0,0,0-2.866-3.938l1.38-1.4482a15.4893,15.4893,0,0,1,2.9472,3.85,13.9913,13.9913,0,0,1,15.1881,9.5666l-.7185.7434Z" fill="#e94235"/><path d="M54.6158,45.0354l-1.066-.5175L53.3842,43.46a12.0191,12.0191,0,0,0,4.0373-13.1523l1.9031-.6148a14.0186,14.0186,0,0,1-4.7088,15.3428Z" fill="#fbbc04"/><path d="M46,48l-.5411-1L46,46a11.8784,11.8784,0,0,0,7.384-2.54l1.232,1.5757A13.8615,13.8615,0,0,1,46,48Z" fill="#34a853"/><path d="M15.5,46a9.5,9.5,0,1,1,6.4873-16.44l1.3662-1.461A11.5,11.5,0,1,0,15.5,48H46V46Z" fill="#bdc1c6"/></svg>